<svg width="110" height="45" viewBox="0 0 110 45" fill="none" xmlns="http://www.w3.org/2000/svg">
<g clip-path="url(#clip0_4_1950)">
<path d="M77.5373 43.9128V37.0942H78.9109V42.7544H82.3264V43.9128H77.5373Z" fill="white"/>
<path d="M73.1553 43.9134H71.6607L71.0667 42.3518H68.3474L67.786 43.9134H66.3289L68.9785 37.0386H70.431L73.1553 43.9134ZM70.6258 41.1935L69.6885 38.6424L68.7695 41.1935H70.6258Z" fill="white"/>
<path d="M59.8372 43.9134V38.2016H57.8187V37.0386H63.2248V38.2016H61.2109V43.9134H59.8372Z" fill="white"/>
<path d="M47.8365 43.9134V37.0386H49.173L51.9574 41.6296V37.0386H53.2338V43.9134H51.8556L49.1129 39.4302V43.9134H47.8365Z" fill="white"/>
<path d="M37.8702 43.9134V37.0386H42.9145V38.2016H39.2438V39.7256H42.6593V40.8839H39.2438V42.7551H43.0445V43.9134H37.8702Z" fill="white"/>
<path d="M27.3864 37.0383H29.8969C30.4631 37.0383 30.8947 37.0821 31.1917 37.1696C31.5908 37.2884 31.9327 37.4994 32.2173 37.8027C32.5019 38.106 32.7185 38.478 32.867 38.9188C33.0155 39.3565 33.0897 39.8974 33.0897 40.5414C33.0897 41.1073 33.0201 41.595 32.8809 42.0045C32.7107 42.5047 32.4678 42.9096 32.1523 43.2191C31.9141 43.4536 31.5923 43.6364 31.187 43.7677C30.8838 43.8647 30.4785 43.9131 29.9712 43.9131H27.3864V37.0383ZM28.76 38.2013V42.7548H29.7855C30.1692 42.7548 30.4461 42.7329 30.6162 42.6892C30.839 42.6329 31.023 42.5375 31.1685 42.4031C31.317 42.2687 31.4377 42.0483 31.5305 41.7419C31.6233 41.4324 31.6697 41.0119 31.6697 40.4804C31.6697 39.949 31.6233 39.541 31.5305 39.2564C31.4377 38.972 31.3077 38.75 31.1406 38.5906C30.9735 38.4311 30.7617 38.3232 30.5049 38.2669C30.313 38.2232 29.9372 38.2013 29.3772 38.2013H28.76Z" fill="white"/>
<path d="M3.27475 9.13218C4.62062 8.12194 6.42127 7.75813 8.14172 7.73779C9.79832 7.73779 11.5187 8.01115 12.9284 8.83483C13.7742 9.33902 14.513 10.1074 14.6324 11.0437C14.7332 11.7954 14.62 12.6837 13.9224 13.1916C13.198 13.6792 12.2452 13.7568 11.3665 13.7623C11.3541 12.741 11.2676 11.6661 10.7059 10.7537C10.3354 10.1461 9.6522 9.69181 8.88257 9.59946C7.83097 9.46463 6.68266 9.64193 5.83066 10.2385C4.88196 10.9477 4.40866 12.0262 4.11643 13.0734C3.64929 14.8095 3.59167 16.6083 3.60607 18.3869C3.63694 19.7979 3.781 21.2274 4.29136 22.5719C4.63913 23.4732 5.19683 24.3523 6.08792 24.9027C7.22798 25.6229 8.69735 25.7596 10.0494 25.6193C11.743 25.4401 13.3009 24.4742 14.0829 23.1149C14.7249 23.6763 14.8402 24.5832 14.5459 25.3163C14.2434 26.1013 13.5457 26.7071 12.7637 27.1226C11.5434 27.7616 10.1173 28.0147 8.71587 28.0368C7.1827 28.0719 5.6146 27.8096 4.26872 27.1318C2.87963 26.4245 1.8445 25.2499 1.21273 23.9478C0.270204 22.0437 0.033546 19.9309 0.0438356 17.8679C0.0582408 16.082 0.214641 14.2702 0.846418 12.5655C1.31768 11.2653 2.08322 10.0113 3.27887 9.13588L3.27475 9.13218Z" fill="#F58420"/>
<path d="M18.8379 1.82084C18.8235 1.30556 18.8132 0.790289 18.842 0.276855C21.1572 0.299018 23.4723 0.269467 25.7895 0.293477C25.7792 8.03004 25.7895 15.7666 25.7854 23.505C25.7813 24.2271 25.7792 25.0102 26.2422 25.6363C26.5736 26.1109 27.1827 26.3695 27.7857 26.4397C28.2734 26.5043 28.7673 26.5154 29.2591 26.4969C29.2921 27.0104 29.2674 27.5257 29.2715 28.0391C25.8039 28.0373 22.3343 28.0465 18.8667 28.0336L18.8317 28.004C18.8153 27.5053 18.8317 27.003 18.8276 26.5025C19.694 26.4932 20.655 26.545 21.3959 26.0685C22.1182 25.5828 22.3199 24.7184 22.3158 23.9519C22.3158 17.3752 22.3158 10.7985 22.3158 4.22363C22.324 3.49965 22.1058 2.69257 21.4206 2.24378C20.6735 1.76913 19.7063 1.82269 18.8359 1.82084H18.8379Z" fill="#F58420"/>
<path d="M39.5582 7.76617C41.1099 7.66831 42.7171 7.8105 44.1432 8.39783C45.3348 8.87613 46.3433 9.68138 47.0633 10.6547C47.8865 11.7554 48.37 13.0316 48.6542 14.3244C49.0021 15.9515 49.047 17.6193 48.9503 19.2704C48.8435 20.855 48.5534 22.4562 47.8434 23.9208C47.3003 25.0474 46.4501 26.0687 45.3245 26.7779C44.1432 27.5333 42.7048 27.9119 41.2684 28.0061C39.6981 28.1151 38.0745 27.9618 36.636 27.3597C35.3704 26.8444 34.3167 25.9561 33.5903 24.8996C32.8453 23.8229 32.3988 22.6003 32.1333 21.3629C31.8308 19.9205 31.767 18.4485 31.8164 16.9839C31.8822 15.4529 32.0942 13.9107 32.6622 12.4572C33.1438 11.2346 33.9175 10.0729 35.0576 9.25476C36.317 8.3184 37.9448 7.86589 39.5603 7.76617H39.5582ZM39.7352 9.69245C38.8729 9.76817 38.0272 10.0784 37.3995 10.6233C36.4693 11.4174 36.031 12.5496 35.7614 13.6503C35.3457 15.4991 35.323 17.3995 35.3971 19.2759C35.4897 20.7737 35.6523 22.3085 36.3253 23.6992C36.7698 24.6337 37.5497 25.4906 38.6301 25.8637C39.6549 26.2128 40.8115 26.2294 41.8651 25.9671C42.9805 25.6883 43.8531 24.8886 44.3387 23.9651C45.1187 22.5098 45.2833 20.8697 45.3821 19.2777C45.4583 17.3829 45.4315 15.4658 45.0055 13.6023C44.7174 12.4388 44.2235 11.2328 43.1657 10.4552C42.2191 9.7534 40.9267 9.58351 39.7372 9.69245H39.7352Z" fill="#F58420"/>
<path d="M79.0322 8.40644C80.3596 7.82467 81.8744 7.66581 83.3374 7.76557C84.9282 7.869 86.5145 8.41566 87.6549 9.43512C88.8855 10.5174 89.5666 12.0005 89.9103 13.4927C90.2747 15.0183 90.2229 16.5862 90.2147 18.1376C86.1318 18.1339 82.0513 18.1487 77.9703 18.1302C77.9414 18.965 78.0363 19.8017 78.1577 20.629C78.3736 21.8868 78.7545 23.1722 79.6313 24.2009C80.2051 24.8843 81.0407 25.381 81.9688 25.5824C83.6811 25.9573 85.5722 25.6673 87.0251 24.7642C87.6938 24.3542 88.2929 23.8334 88.6939 23.198C89.0129 23.3144 89.1921 23.6117 89.3136 23.8851C89.5872 24.622 89.2334 25.4143 88.7292 26.0016C87.84 27.0063 86.4696 27.5567 85.1093 27.8503C83.1912 28.192 81.1209 28.1163 79.3306 27.3628C77.9561 26.7995 76.8322 25.8114 76.0769 24.6479C74.9082 22.8509 74.4782 20.7454 74.4017 18.688C74.3609 17.205 74.4411 15.7108 74.7496 14.2499C74.9989 13.0956 75.3981 11.9543 76.0668 10.9366C76.7662 9.871 77.7833 8.95311 79.0322 8.41196V8.40644ZM80.1107 10.4805C79.3966 11.0604 78.9685 11.8619 78.672 12.6709C78.2668 13.8011 78.0977 14.9887 78.0239 16.1707C80.8495 16.1707 83.6747 16.1836 86.4985 16.1633C86.482 14.9425 86.3977 13.7107 86.0333 12.5286C85.7679 11.6883 85.3417 10.8388 84.5538 10.2884C83.8869 9.79712 82.9854 9.65493 82.1439 9.71403C81.3968 9.75836 80.6602 10.0224 80.1084 10.4805H80.1107Z" fill="#F58420"/>
<path d="M51.1762 8.44336C54.2425 8.44517 57.3087 8.44336 60.3754 8.44336C60.3832 8.95306 60.3672 9.46096 60.3855 9.97072C59.7063 9.99285 58.9656 9.95594 58.3771 10.3179C57.844 10.6319 57.6813 11.2469 57.7001 11.7862C57.7125 12.5065 58.0375 13.1806 58.2657 13.8621C58.9307 15.6905 59.5889 17.5189 60.254 19.3473C60.6862 20.5145 61.0771 21.6928 61.4287 22.8804C61.684 23.7447 61.9516 24.6109 62.1102 25.4955C62.1345 25.4882 62.1881 25.4771 62.2129 25.4697C62.7789 23.6486 63.5425 21.883 64.2048 20.0916C65.0115 17.9234 65.8163 15.7533 66.623 13.5869C66.9007 12.8943 67.123 12.1556 67.0245 11.415C66.9685 10.992 66.7467 10.5617 66.331 10.3327C65.7402 9.991 65.0156 9.99656 64.3427 9.96701C64.3675 9.45911 64.345 8.95121 64.3551 8.44336C66.9873 8.44887 69.6173 8.44336 72.2472 8.44521C72.2389 8.95862 72.2618 9.47389 72.2348 9.98734C71.661 9.98179 71.0271 9.95409 70.5312 10.257C70.0536 10.5709 69.7859 11.064 69.5494 11.5368C69.0553 12.5674 68.6951 13.646 68.2775 14.7024C67.2733 17.3342 66.265 19.966 65.2608 22.5978C64.5568 24.4114 63.8899 26.2361 63.1658 28.0424C62.0543 28.0276 60.9433 28.0368 59.83 28.0387C57.8152 22.6255 55.848 17.1957 53.8455 11.7788C53.6191 11.2377 53.3556 10.6614 52.8125 10.3142C52.339 10.0095 51.7299 9.9892 51.1702 9.97993C51.162 9.46837 51.1579 8.95492 51.1744 8.44336H51.1762Z" fill="#F58420"/>
<path d="M102.064 6.32202C102.906 6.32387 103.748 6.32387 104.589 6.32202C106.256 8.14121 107.649 10.1802 108.571 12.3909C109.259 14.0937 109.557 15.911 109.567 17.7191C109.588 19.3074 109.361 20.8976 108.861 22.4231C108.034 24.9995 106.456 27.3321 104.583 29.4024C103.743 29.3969 102.902 29.3969 102.062 29.4024C103.82 27.2693 104.986 24.7723 105.579 22.1775C106.373 18.7386 106.207 15.1187 105.071 11.7574C104.42 9.8108 103.406 7.96021 102.062 6.32202H102.064Z" fill="white"/>
<path d="M95.4098 10.801C96.7265 10.801 98.0438 10.801 99.3611 10.801C99.3611 11.9923 99.3611 13.1817 99.3611 14.3729C98.042 14.3729 96.7247 14.3729 95.4075 14.3729C95.4075 13.1835 95.4075 11.9923 95.4075 10.8029L95.4098 10.801Z" fill="white"/>
<path d="M95.36 21.0553C96.6772 21.0553 97.994 21.0608 99.3112 21.0535C99.3112 22.2447 99.3112 23.436 99.3112 24.6271C97.994 24.6271 96.6772 24.6271 95.36 24.6271C95.3581 23.436 95.3581 22.2466 95.36 21.0553Z" fill="white"/>
</g>
<defs>
<clipPath id="clip0_4_1950">
<rect width="110" height="44" fill="white" transform="translate(0 0.246094)"/>
</clipPath>
</defs>
</svg>
