<svg width="101" height="41" viewBox="0 0 101 41" fill="none" xmlns="http://www.w3.org/2000/svg">
<g clip-path="url(#clip0_4_1433)">
<path d="M71.41 41.0836V34.73H72.6785V40.0043H75.8324V41.0836H71.41Z" fill="#462512"/>
<path d="M67.3622 41.0838H65.982L65.4335 39.6287H62.9225L62.404 41.0838H61.0586L63.5053 34.6777H64.8465L67.3622 41.0838ZM65.0264 38.5493L64.1609 36.1722L63.3123 38.5493H65.0264Z" fill="#462512"/>
<path d="M55.0631 41.0838V35.7614H53.1992V34.6777H58.1912V35.7614H56.3316V41.0838H55.0631Z" fill="#462512"/>
<path d="M43.9863 41.0838V34.6777H45.2205L47.7916 38.9557V34.6777H48.9703V41.0838H47.6976L45.165 36.9063V41.0838H43.9863Z" fill="#462512"/>
<path d="M34.7812 41.0838V34.6777H39.4393V35.7614H36.0497V37.1816H39.2036V38.2609H36.0497V40.0045H39.5593V41.0838H34.7812Z" fill="#462512"/>
<path d="M25.1016 34.6777H27.4199C27.9427 34.6777 28.3412 34.7185 28.6154 34.8001C28.984 34.9108 29.2997 35.1074 29.5625 35.39C29.8253 35.6726 30.0253 36.0193 30.1624 36.43C30.2996 36.8378 30.3681 37.3418 30.3681 37.9419C30.3681 38.4692 30.3038 38.9237 30.1753 39.3053C30.0182 39.7714 29.7939 40.1487 29.5025 40.4371C29.2825 40.6556 28.9854 40.826 28.6112 40.9483C28.3312 41.0386 27.9569 41.0838 27.4884 41.0838H25.1016V34.6777ZM26.37 35.7614V40.0045H27.317C27.6712 40.0045 27.927 39.9841 28.0841 39.9433C28.2898 39.8909 28.4597 39.802 28.594 39.6767C28.7311 39.5515 28.8426 39.3461 28.9283 39.0606C29.014 38.7722 29.0568 38.3804 29.0568 37.8851C29.0568 37.3899 29.014 37.0097 28.9283 36.7446C28.8426 36.4795 28.7226 36.2727 28.5683 36.1241C28.414 35.9755 28.2184 35.875 27.9812 35.8226C27.8041 35.7818 27.457 35.7614 26.9399 35.7614H26.37Z" fill="#462512"/>
<path d="M2.83337 8.67431C4.07616 7.73295 5.7389 7.39395 7.32759 7.375C8.85731 7.375 10.446 7.62972 11.7477 8.39724C12.5287 8.86706 13.2109 9.583 13.3211 10.4555C13.4142 11.1559 13.3097 11.9837 12.6655 12.457C11.9966 12.9113 11.1168 12.9836 10.3054 12.9888C10.2939 12.037 10.2141 11.0355 9.69535 10.1853C9.3533 9.61913 8.72239 9.19579 8.0117 9.10973C7.04064 8.9841 5.98027 9.14931 5.19353 9.70518C4.31748 10.366 3.88043 11.371 3.61059 12.3468C3.17923 13.9645 3.12601 15.6407 3.13932 17.298C3.16782 18.6129 3.30085 19.9448 3.77212 21.1977C4.09326 22.0375 4.60824 22.8567 5.43109 23.3695C6.48383 24.0407 7.84067 24.1681 9.08916 24.0373C10.6531 23.8703 12.0916 22.9703 12.8137 21.7037C13.4066 22.2268 13.513 23.0718 13.2413 23.755C12.9619 24.4864 12.3177 25.0509 11.5956 25.4381C10.4688 26.0336 9.15184 26.2694 7.85777 26.29C6.44202 26.3227 4.99402 26.0783 3.75121 25.4467C2.46851 24.7876 1.51266 23.6931 0.929272 22.4798C0.058934 20.7055 -0.159599 18.7368 -0.150097 16.8144C-0.136795 15.1503 0.00762619 13.462 0.591017 11.8736C1.02618 10.662 1.7331 9.49349 2.83717 8.67777L2.83337 8.67431Z" fill="#E9811F"/>
<path d="M17.2085 1.86156C17.1951 1.38142 17.1857 0.901278 17.2122 0.422852C19.3501 0.443503 21.4879 0.415967 23.6277 0.438339C23.6182 7.64741 23.6277 14.8565 23.6238 22.0672C23.6201 22.7402 23.6182 23.4698 24.0457 24.0532C24.3517 24.4955 24.9142 24.7365 25.471 24.8019C25.9213 24.8621 26.3774 24.8724 26.8316 24.8552C26.862 25.3337 26.8392 25.8138 26.843 26.2922C23.6409 26.2905 20.437 26.2991 17.235 26.2871L17.2028 26.2595C17.1876 25.7948 17.2028 25.3268 17.1989 24.8604C17.999 24.8518 18.8864 24.9 19.5705 24.456C20.2375 24.0034 20.4238 23.1979 20.4199 22.4837C20.4199 16.3554 20.4199 10.2271 20.4199 4.10053C20.4276 3.42591 20.2261 2.67386 19.5933 2.25566C18.9035 1.81338 18.0104 1.86329 17.2066 1.86156H17.2085Z" fill="#E9811F"/>
<path d="M36.3425 7.40145C37.7753 7.31025 39.2594 7.44275 40.5764 7.99003C41.6766 8.43572 42.6079 9.18607 43.2728 10.093C44.0329 11.1187 44.4795 12.3079 44.7419 13.5126C45.0631 15.0287 45.1046 16.5827 45.0153 18.1213C44.9166 19.5978 44.6487 21.0899 43.9932 22.4546C43.4916 23.5044 42.7065 24.4561 41.6671 25.1169C40.5764 25.8208 39.2481 26.1736 37.9217 26.2614C36.4717 26.3629 34.9724 26.2201 33.6441 25.6591C32.4754 25.1789 31.5024 24.3511 30.8317 23.3667C30.1437 22.3634 29.7314 21.2241 29.4862 20.0711C29.2069 18.727 29.148 17.3554 29.1936 15.9907C29.2544 14.5641 29.4501 13.127 29.9746 11.7727C30.4193 10.6334 31.1338 9.55092 32.1865 8.78854C33.3495 7.91602 34.8527 7.49436 36.3444 7.40145H36.3425ZM36.5059 9.19638C35.7097 9.26695 34.9287 9.55606 34.3491 10.0638C33.4902 10.8038 33.0854 11.8587 32.8365 12.8844C32.4526 14.6071 32.4317 16.3779 32.5001 18.1264C32.5856 19.5221 32.7357 20.9522 33.3572 22.2481C33.7676 23.1189 34.4878 23.9174 35.4855 24.2651C36.4318 24.5903 37.4998 24.6058 38.4727 24.3614C39.5027 24.1016 40.3084 23.3564 40.7569 22.4959C41.4771 21.1398 41.6291 19.6116 41.7203 18.1281C41.7907 16.3625 41.7659 14.5761 41.3726 12.8396C41.1066 11.7555 40.6505 10.6317 39.6737 9.90715C38.7996 9.25318 37.6062 9.09487 36.5078 9.19638H36.5059Z" fill="#E9811F"/>
<path d="M72.7909 7.99806C74.0165 7.45596 75.4153 7.30792 76.7663 7.40089C78.2353 7.49726 79.7001 8.00665 80.7531 8.9566C81.8895 9.96511 82.5184 11.347 82.8358 12.7375C83.1723 14.1591 83.1245 15.6201 83.1169 17.0658C79.3467 17.0623 75.5787 17.0761 71.8102 17.0588C71.7836 17.8367 71.8712 18.6163 71.9833 19.3873C72.1827 20.5593 72.5344 21.7571 73.344 22.7156C73.8739 23.3524 74.6455 23.8153 75.5025 24.0029C77.0837 24.3523 78.8299 24.0821 80.1716 23.2405C80.7891 22.8585 81.3422 22.3731 81.7126 21.7811C82.0071 21.8896 82.1726 22.1666 82.2848 22.4213C82.5374 23.108 82.2107 23.8463 81.7452 24.3935C80.9241 25.3298 79.6586 25.8426 78.4025 26.1162C76.6313 26.4346 74.7195 26.364 73.0664 25.6619C71.7971 25.137 70.7593 24.2163 70.0619 23.1321C68.9826 21.4576 68.5856 19.4957 68.515 17.5786C68.4773 16.1967 68.5514 14.8044 68.8362 13.4431C69.0664 12.3675 69.4351 11.304 70.0526 10.3557C70.6984 9.36276 71.6376 8.50745 72.7909 8.0032V7.99806ZM73.7867 9.93067C73.1273 10.4711 72.732 11.2179 72.4582 11.9717C72.0841 13.0249 71.9279 14.1315 71.8598 15.2329C74.469 15.2329 77.0778 15.245 79.6853 15.2261C79.6701 14.0885 79.5922 12.9406 79.2557 11.8392C79.0107 11.0562 78.6171 10.2645 77.8895 9.7517C77.2737 9.29392 76.4412 9.16143 75.6642 9.2165C74.9743 9.2578 74.2942 9.50388 73.7846 9.93067H73.7867Z" fill="#E9811F"/>
<path d="M47.0688 8.03223C49.9002 8.03391 52.7316 8.03223 55.5635 8.03223C55.5707 8.50718 55.5559 8.98045 55.5728 9.45544C54.9456 9.47607 54.2616 9.44168 53.7182 9.77896C53.226 10.0715 53.0757 10.6446 53.0931 11.1471C53.1045 11.8183 53.4046 12.4465 53.6153 13.0815C54.2295 14.7852 54.8372 16.489 55.4513 18.1927C55.8504 19.2803 56.2114 20.3783 56.5361 21.4849C56.7718 22.2903 57.019 23.0974 57.1654 23.9218C57.1878 23.9149 57.2374 23.9045 57.2602 23.8977C57.7829 22.2008 58.488 20.5556 59.0996 18.8863C59.8445 16.8659 60.5876 14.8437 61.3325 12.825C61.589 12.1797 61.7943 11.4913 61.7033 10.8012C61.6516 10.4071 61.4468 10.0061 61.0629 9.79272C60.5174 9.47435 59.8483 9.47953 59.227 9.45199C59.2498 8.97872 59.2291 8.50545 59.2384 8.03223C61.669 8.03736 64.0975 8.03223 66.526 8.03395C66.5184 8.51236 66.5395 8.99249 66.5146 9.47094C65.9847 9.46576 65.3994 9.43995 64.9414 9.7222C64.5004 10.0147 64.2532 10.4742 64.0349 10.9148C63.5786 11.8751 63.246 12.8802 62.8604 13.8645C61.9331 16.3169 61.002 18.7692 60.0747 21.2216C59.4246 22.9116 58.8088 24.6118 58.1401 26.295C57.1138 26.2812 56.0879 26.2898 55.0598 26.2915C53.1993 21.2474 51.3828 16.1878 49.5337 11.1402C49.3246 10.636 49.0813 10.0991 48.5797 9.77555C48.1425 9.49157 47.5801 9.47266 47.0633 9.46403C47.0557 8.98735 47.0519 8.50891 47.0671 8.03223H47.0688Z" fill="#E9811F"/>
<path d="M94.0547 6.05542C94.8317 6.05715 95.6092 6.05715 96.3862 6.05542C97.9255 7.75057 99.2122 9.65051 100.063 11.7105C100.698 13.2972 100.974 14.9906 100.983 16.6754C101.002 18.1555 100.793 19.6372 100.331 21.0587C99.5673 23.4594 98.1101 25.633 96.3807 27.5621C95.6054 27.557 94.8279 27.557 94.053 27.5621C95.6756 25.5745 96.7532 23.2477 97.3004 20.8298C98.0339 17.6254 97.8798 14.2523 96.8311 11.1202C96.2305 9.30633 95.2935 7.58191 94.053 6.05542H94.0547Z" fill="#462512"/>
<path d="M87.9103 10.2285C89.1263 10.2285 90.3426 10.2285 91.559 10.2285C91.559 11.3385 91.559 12.4468 91.559 13.5569C90.3409 13.5569 89.1246 13.5569 87.9082 13.5569C87.9082 12.4486 87.9082 11.3385 87.9082 10.2302L87.9103 10.2285Z" fill="#462512"/>
<path d="M87.8706 19.7837C89.087 19.7837 90.3029 19.7888 91.5193 19.782C91.5193 20.892 91.5193 22.002 91.5193 23.112C90.3029 23.112 89.087 23.112 87.8706 23.112C87.8689 22.002 87.8689 20.8937 87.8706 19.7837Z" fill="#462512"/>
</g>
<defs>
<clipPath id="clip0_4_1433">
<rect width="101" height="41" fill="white"/>
</clipPath>
</defs>
</svg>
