<svg width="17" height="19" viewBox="0 0 17 19" fill="none" xmlns="http://www.w3.org/2000/svg">
<path d="M15.709 8.79673V6.3765C15.709 5.00923 15.709 4.32559 15.3721 3.87957C15.0352 3.43354 14.2735 3.217 12.75 2.78393C11.7091 2.48805 10.7915 2.13158 10.0585 1.80616C9.05895 1.36247 8.55923 1.14062 8.20575 1.14062C7.85226 1.14062 7.35254 1.36247 6.35302 1.80616C5.61994 2.13158 4.70241 2.48804 3.66153 2.78393C2.13803 3.217 1.37627 3.43354 1.03936 3.87957C0.702454 4.32559 0.702454 5.00923 0.702454 6.3765V8.79673C0.702454 13.4865 4.92328 16.3002 7.03357 17.4139C7.5397 17.681 7.79273 17.8146 8.20575 17.8146C8.61876 17.8146 8.87179 17.681 9.37793 17.4139C11.4882 16.3002 15.709 13.4865 15.709 8.79673Z" fill="white" stroke="#4D2C19" stroke-width="1.36" stroke-linecap="round"/>
<path d="M5.70465 10.3114C5.70465 10.3114 6.53835 10.3114 7.37205 11.9788C7.37205 11.9788 10.0203 7.81026 12.3742 6.97656" stroke="#4D2C19" stroke-width="1.36" stroke-linecap="round" stroke-linejoin="round"/>
</svg>
